<mxfile host="app.diagrams.net" modified="2023-05-07T01:59:20.666Z" agent="Mozilla/5.0 (Windows NT 10.0; Win64; x64) AppleWebKit/537.36 (KHTML, like Gecko) Chrome/112.0.0.0 Safari/537.36" etag="H0jcwbGTfZmi2K7JCtyg" version="21.2.9" type="github">
  <diagram name="Page-1" id="2lIt8yLiNuuO6sr_BiP3">
    <mxGraphModel dx="1434" dy="764" grid="1" gridSize="10" guides="1" tooltips="1" connect="1" arrows="1" fold="1" page="1" pageScale="1" pageWidth="850" pageHeight="1100" math="0" shadow="0">
      <root>
        <mxCell id="0" />
        <mxCell id="1" parent="0" />
        <mxCell id="fMG0FPKnebNv6BMzg9u5-2" value="&lt;h1&gt;&lt;font face=&quot;Georgia&quot;&gt;FS filter&lt;/font&gt;&lt;/h1&gt;" style="rounded=0;whiteSpace=wrap;html=1;fillColor=#ffe6cc;strokeColor=#d79b00;dashed=1;" vertex="1" parent="1">
          <mxGeometry x="60" y="180" width="660" height="50" as="geometry" />
        </mxCell>
        <mxCell id="fMG0FPKnebNv6BMzg9u5-3" value="&lt;h1&gt;&lt;font face=&quot;Georgia&quot;&gt;&amp;nbsp;Ransomware&lt;/font&gt;&lt;/h1&gt;" style="rounded=0;whiteSpace=wrap;html=1;fillColor=#F8526E;strokeColor=#b85450;" vertex="1" parent="1">
          <mxGeometry x="240" y="50" width="250" height="50" as="geometry" />
        </mxCell>
        <mxCell id="fMG0FPKnebNv6BMzg9u5-4" value="&lt;h1&gt;&lt;font face=&quot;Georgia&quot;&gt;File System&amp;nbsp;&lt;br&gt;(NTFS, F2FS, ...)&lt;/font&gt;&lt;/h1&gt;" style="rounded=0;whiteSpace=wrap;html=1;strokeColor=#6c8ebf;dashed=1;fillColor=#dae8fc;" vertex="1" parent="1">
          <mxGeometry x="230" y="240" width="310" height="70" as="geometry" />
        </mxCell>
        <mxCell id="fMG0FPKnebNv6BMzg9u5-5" value="&lt;h1&gt;&lt;font face=&quot;Georgia&quot;&gt;Storage System with Data Backup Policy&lt;/font&gt;&lt;/h1&gt;" style="rounded=1;whiteSpace=wrap;html=1;fillColor=#e3c800;fontColor=#000000;strokeColor=#B09500;" vertex="1" parent="1">
          <mxGeometry x="210" y="110" width="330" height="60" as="geometry" />
        </mxCell>
        <mxCell id="fMG0FPKnebNv6BMzg9u5-6" value="&lt;h1&gt;&lt;font face=&quot;Georgia&quot;&gt;BIO Layer&lt;/font&gt;&lt;/h1&gt;" style="rounded=0;whiteSpace=wrap;html=1;fillColor=#ffe6cc;strokeColor=#d79b00;dashed=1;" vertex="1" parent="1">
          <mxGeometry x="55" y="320" width="660" height="50" as="geometry" />
        </mxCell>
        <mxCell id="fMG0FPKnebNv6BMzg9u5-7" value="&lt;h1&gt;&lt;font face=&quot;Georgia&quot;&gt;Storage Media&amp;nbsp;&lt;/font&gt;&lt;/h1&gt;" style="rounded=0;whiteSpace=wrap;html=1;strokeColor=#56517e;dashed=1;fillColor=#d0cee2;" vertex="1" parent="1">
          <mxGeometry x="220" y="380" width="310" height="70" as="geometry" />
        </mxCell>
      </root>
    </mxGraphModel>
  </diagram>
</mxfile>
